<svg width="25" height="24" viewBox="0 0 25 24" fill="none" xmlns="http://www.w3.org/2000/svg">
<path d="M23 12C23 17.796 18.3012 22.5 12.5 22.5C6.69875 22.5 2 17.796 2 12C2 6.19875 6.69875 1.5 12.5 1.5C18.3012 1.5 23 6.19875 23 12Z" fill="#283544"/>
<path d="M17.4216 9.34304C17.3643 9.37646 16.0003 10.0819 16.0003 11.6459C16.0646 13.4296 17.7216 14.0551 17.75 14.0551C17.7216 14.0885 17.4998 14.9072 16.843 15.7654C16.3217 16.5047 15.7432 17.25 14.8646 17.25C14.0289 17.25 13.7289 16.7573 12.7646 16.7573C11.729 16.7573 11.436 17.25 10.6431 17.25C9.76458 17.25 9.14315 16.4647 8.59345 15.7324C7.87932 14.7739 7.27233 13.2698 7.2509 11.8256C7.23646 11.0603 7.39392 10.308 7.79361 9.66904C8.35774 8.77699 9.36489 8.17143 10.4647 8.15146C11.3074 8.12498 12.0574 8.6906 12.5717 8.6906C13.0646 8.6906 13.986 8.15146 15.0286 8.15146C15.4786 8.1519 16.6786 8.27822 17.4216 9.34304ZM12.5005 7.99866C12.3505 7.29978 12.7646 6.60089 13.1503 6.15508C13.6432 5.61594 14.4216 5.25 15.0929 5.25C15.1357 5.94889 14.8641 6.63432 14.3787 7.13352C13.9432 7.67266 13.1932 8.07853 12.5005 7.99866Z" fill="white"/>
</svg>
